<mxfile host="app.diagrams.net" modified="2021-06-08T13:54:01.791Z" agent="5.0 (Windows NT 10.0; Win64; x64) AppleWebKit/537.36 (KHTML, like Gecko) Chrome/91.0.4472.77 Safari/537.36" etag="cxQib3OYWsJzYkPiraV0" version="14.7.6" type="github">
  <diagram id="6a731a19-8d31-9384-78a2-239565b7b9f0" name="Page-1">
    <mxGraphModel dx="2673" dy="916" grid="1" gridSize="10" guides="1" tooltips="1" connect="1" arrows="1" fold="1" page="1" pageScale="1" pageWidth="1169" pageHeight="827" background="none" math="0" shadow="0">
      <root>
        <mxCell id="0" />
        <mxCell id="1" parent="0" />
        <mxCell id="1746" value="" style="edgeStyle=none;rounded=0;jumpStyle=none;html=1;shadow=0;labelBackgroundColor=none;startArrow=none;startFill=0;endArrow=classic;endFill=1;jettySize=auto;orthogonalLoop=1;strokeColor=#2F5B7C;strokeWidth=3;fontFamily=Helvetica;fontSize=26;fontColor=#23445D;spacing=5;entryX=0.25;entryY=0;entryDx=0;entryDy=0;" parent="1" source="1749" target="1771" edge="1">
          <mxGeometry relative="1" as="geometry">
            <mxPoint x="740" y="510" as="targetPoint" />
          </mxGeometry>
        </mxCell>
        <mxCell id="1747" value="" style="edgeStyle=none;rounded=0;jumpStyle=none;html=1;shadow=0;labelBackgroundColor=none;startArrow=none;startFill=0;endArrow=classic;endFill=1;jettySize=auto;orthogonalLoop=1;strokeColor=#2F5B7C;strokeWidth=3;fontFamily=Helvetica;fontSize=26;fontColor=#23445D;spacing=5;" parent="1" source="1749" target="1760" edge="1">
          <mxGeometry relative="1" as="geometry" />
        </mxCell>
        <mxCell id="1748" value="" style="edgeStyle=none;rounded=0;jumpStyle=none;html=1;shadow=0;labelBackgroundColor=none;startArrow=none;startFill=0;endArrow=classic;endFill=1;jettySize=auto;orthogonalLoop=1;strokeColor=#2F5B7C;strokeWidth=3;fontFamily=Helvetica;fontSize=26;fontColor=#23445D;spacing=5;" parent="1" source="1749" edge="1">
          <mxGeometry relative="1" as="geometry">
            <mxPoint x="370" y="420" as="targetPoint" />
          </mxGeometry>
        </mxCell>
        <mxCell id="R6-JRa4BKZxVCA5tJGrg-1800" value="" style="edgeStyle=orthogonalEdgeStyle;rounded=0;orthogonalLoop=1;jettySize=auto;html=1;fontSize=26;" edge="1" parent="1" source="1749" target="R6-JRa4BKZxVCA5tJGrg-1799">
          <mxGeometry relative="1" as="geometry" />
        </mxCell>
        <mxCell id="1749" value="HANDLERS" style="rounded=1;whiteSpace=wrap;html=1;shadow=0;labelBackgroundColor=none;strokeColor=none;strokeWidth=3;fillColor=#2F5B7C;fontFamily=Helvetica;fontSize=26;fontColor=#FFFFFF;align=center;fontStyle=1;spacing=5;arcSize=7;perimeterSpacing=2;" parent="1" vertex="1">
          <mxGeometry x="465" y="160" width="238.93" height="130" as="geometry" />
        </mxCell>
        <mxCell id="1751" value="" style="edgeStyle=none;rounded=1;jumpStyle=none;html=1;shadow=0;labelBackgroundColor=none;startArrow=none;startFill=0;jettySize=auto;orthogonalLoop=1;strokeColor=#E85642;strokeWidth=3;fontFamily=Helvetica;fontSize=26;fontColor=#FFFFFF;spacing=5;fontStyle=1;fillColor=#b0e3e6;" parent="1" source="1753" edge="1">
          <mxGeometry relative="1" as="geometry">
            <mxPoint x="530" y="640" as="targetPoint" />
          </mxGeometry>
        </mxCell>
        <mxCell id="1753" value="USERS" style="rounded=1;whiteSpace=wrap;html=1;shadow=0;labelBackgroundColor=none;strokeColor=none;strokeWidth=3;fillColor=#e85642;fontFamily=Helvetica;fontSize=26;fontColor=#FFFFFF;align=center;spacing=5;fontStyle=1;arcSize=7;perimeterSpacing=2;" parent="1" vertex="1">
          <mxGeometry x="260" y="430" width="150" height="60" as="geometry" />
        </mxCell>
        <mxCell id="1758" value="" style="edgeStyle=none;rounded=0;jumpStyle=none;html=1;shadow=0;labelBackgroundColor=none;startArrow=none;startFill=0;endArrow=classic;endFill=1;jettySize=auto;orthogonalLoop=1;strokeColor=#1699D3;strokeWidth=3;fontFamily=Helvetica;fontSize=26;fontColor=#FFFFFF;spacing=5;" parent="1" source="1760" edge="1">
          <mxGeometry relative="1" as="geometry">
            <mxPoint x="583" y="630" as="targetPoint" />
          </mxGeometry>
        </mxCell>
        <mxCell id="1760" value="CHECKS" style="rounded=1;whiteSpace=wrap;html=1;shadow=0;labelBackgroundColor=none;strokeColor=none;strokeWidth=3;fillColor=#1699d3;fontFamily=Helvetica;fontSize=26;fontColor=#FFFFFF;align=center;spacing=5;fontStyle=1;arcSize=7;perimeterSpacing=2;" parent="1" vertex="1">
          <mxGeometry x="509.46" y="430" width="150" height="60" as="geometry" />
        </mxCell>
        <mxCell id="R6-JRa4BKZxVCA5tJGrg-1810" value="" style="edgeStyle=orthogonalEdgeStyle;rounded=0;orthogonalLoop=1;jettySize=auto;html=1;fontSize=26;" edge="1" parent="1" source="1764" target="1749">
          <mxGeometry relative="1" as="geometry" />
        </mxCell>
        <mxCell id="1764" value="server.router" style="rounded=1;whiteSpace=wrap;html=1;shadow=0;labelBackgroundColor=none;strokeColor=none;strokeWidth=3;fillColor=#F08705;fontFamily=Helvetica;fontSize=26;fontColor=#FFFFFF;align=center;spacing=5;fontStyle=1;arcSize=7;perimeterSpacing=2;" parent="1" vertex="1">
          <mxGeometry x="190" y="182.75" width="190" height="84.5" as="geometry" />
        </mxCell>
        <mxCell id="1767" value="URL[get, post, put, delete]" style="rounded=1;whiteSpace=wrap;html=1;shadow=0;labelBackgroundColor=none;strokeColor=none;strokeWidth=3;fillColor=#f5af58;fontFamily=Helvetica;fontSize=26;fontColor=#FFFFFF;align=center;spacing=5;arcSize=7;perimeterSpacing=2;" parent="1" vertex="1">
          <mxGeometry x="-110" y="177.25" width="220" height="90" as="geometry" />
        </mxCell>
        <mxCell id="1771" value="TOKENS" style="rounded=1;whiteSpace=wrap;html=1;shadow=0;labelBackgroundColor=none;strokeColor=none;strokeWidth=3;fillColor=#12aab5;fontFamily=Helvetica;fontSize=26;fontColor=#FFFFFF;align=center;spacing=5;fontStyle=1;arcSize=7;perimeterSpacing=2;" parent="1" vertex="1">
          <mxGeometry x="750" y="429.9999999999999" width="150" height="60" as="geometry" />
        </mxCell>
        <mxCell id="1779" value="" style="edgeStyle=none;rounded=1;jumpStyle=none;html=1;shadow=0;labelBackgroundColor=none;startArrow=none;startFill=0;jettySize=auto;orthogonalLoop=1;strokeColor=#12AAB5;strokeWidth=3;fontFamily=Helvetica;fontSize=26;fontColor=#FFFFFF;spacing=5;fontStyle=1;fillColor=#b0e3e6;" parent="1" source="1771" edge="1">
          <mxGeometry relative="1" as="geometry">
            <mxPoint x="640" y="640" as="targetPoint" />
          </mxGeometry>
        </mxCell>
        <mxCell id="R6-JRa4BKZxVCA5tJGrg-1780" value="HELPERS&lt;br style=&quot;font-size: 26px;&quot;&gt;" style="rounded=0;whiteSpace=wrap;html=1;fontSize=26;fillColor=#a0522d;strokeColor=#6D1F00;fontColor=#ffffff;" vertex="1" parent="1">
          <mxGeometry x="910" y="610" width="120" height="60" as="geometry" />
        </mxCell>
        <mxCell id="R6-JRa4BKZxVCA5tJGrg-1794" value="" style="shape=singleArrow;whiteSpace=wrap;html=1;arrowWidth=0.4;arrowSize=0.4;rounded=1;shadow=0;fontSize=26;fontColor=#FFFFFF;strokeColor=none;strokeWidth=3;fillColor=#f5af58;spacing=5;arcSize=7;" vertex="1" parent="1">
          <mxGeometry x="110" y="195" width="80" height="60" as="geometry" />
        </mxCell>
        <mxCell id="R6-JRa4BKZxVCA5tJGrg-1798" value="DATA [FS functions]" style="ellipse;whiteSpace=wrap;html=1;fillColor=#d80073;strokeColor=#A50040;fontColor=#ffffff;fontSize=26;" vertex="1" parent="1">
          <mxGeometry x="492.00000000000006" y="630" width="185.54" height="130" as="geometry" />
        </mxCell>
        <mxCell id="R6-JRa4BKZxVCA5tJGrg-1799" value="" style="shape=singleArrow;whiteSpace=wrap;html=1;arrowWidth=0.4;arrowSize=0.4;rounded=1;shadow=0;fontSize=26;fontColor=#FFFFFF;fontStyle=1;strokeColor=none;strokeWidth=3;fillColor=#2F5B7C;spacing=5;arcSize=7;" vertex="1" parent="1">
          <mxGeometry x="730" y="207.5" width="113.4" height="35" as="geometry" />
        </mxCell>
        <mxCell id="R6-JRa4BKZxVCA5tJGrg-1802" value="REQUEST" style="text;html=1;align=center;verticalAlign=middle;resizable=0;points=[];autosize=1;strokeColor=none;fontSize=26;" vertex="1" parent="1">
          <mxGeometry x="-90" y="70" width="140" height="40" as="geometry" />
        </mxCell>
        <mxCell id="R6-JRa4BKZxVCA5tJGrg-1804" value="GUI" style="rounded=1;whiteSpace=wrap;html=1;fillColor=#008a00;strokeColor=#005700;fontColor=#ffffff;fontSize=26;" vertex="1" parent="1">
          <mxGeometry x="850" y="180" width="220" height="80" as="geometry" />
        </mxCell>
        <mxCell id="R6-JRa4BKZxVCA5tJGrg-1805" value="RESPONSE" style="text;html=1;align=center;verticalAlign=middle;resizable=0;points=[];autosize=1;strokeColor=none;fontSize=26;" vertex="1" parent="1">
          <mxGeometry x="860" y="70" width="160" height="40" as="geometry" />
        </mxCell>
      </root>
    </mxGraphModel>
  </diagram>
</mxfile>
